{
    "asset" : {
        "generator" : "Khronos glTF Blender I/O v0.9.36",
        "version" : "2.0"
    },
    "scene" : 0,
    "scenes" : [
        {
            "name" : "Scene",
            "nodes" : [
                0,
                1,
                2,
                3,
                4,
                5
            ]
        }
    ],
    "nodes" : [
        {
            "mesh" : 0,
            "name" : "Cylinder.001",
            "rotation" : [
                0,
                0,
                -0.7071067690849304,
                0.7071068286895752
            ],
            "translation" : [
                0,
                0.3889898955821991,
                -0.3269217610359192
            ]
        },
        {
            "mesh" : 1,
            "name" : "Cylinder.002",
            "rotation" : [
                0,
                0,
                -0.7071067690849304,
                0.7071068286895752
            ],
            "translation" : [
                0,
                0,
                -0.6548779606819153
            ]
        },
        {
            "mesh" : 2,
            "name" : "Cylinder.003",
            "rotation" : [
                0,
                0,
                -0.7071067690849304,
                0.7071068286895752
            ],
            "translation" : [
                0,
                0.38442689180374146,
                0.27180036902427673
            ]
        },
        {
            "mesh" : 3,
            "name" : "Cylinder.004",
            "rotation" : [
                0,
                0,
                -0.7071067690849304,
                0.7071068286895752
            ],
            "translation" : [
                0,
                0,
                0.5817159414291382
            ]
        },
        {
            "mesh" : 4,
            "name" : "Cylinder",
            "rotation" : [
                0,
                0,
                -0.7071067690849304,
                0.7071068286895752
            ],
            "scale" : [
                0.9880781173706055,
                0.9880781173706055,
                0.9880781173706055
            ],
            "translation" : [
                0,
                0.7789225578308105,
                0
            ]
        },
        {
            "mesh" : 5,
            "name" : "Cylinder.005",
            "rotation" : [
                0,
                0,
                -0.7071067690849304,
                0.7071068286895752
            ]
        }
    ],
    "materials" : [
        {
            "doubleSided" : true,
            "name" : "realmateria;",
            "pbrMetallicRoughness" : {
                "baseColorFactor" : [
                    0.7824090123176575,
                    0.7824090123176575,
                    0.7824090123176575,
                    1
                ],
                "metallicFactor" : 1,
                "roughnessFactor" : 0.07272729277610779
            }
        }
    ],
    "meshes" : [
        {
            "name" : "Cylinder.003",
            "primitives" : [
                {
                    "attributes" : {
                        "POSITION" : 0,
                        "NORMAL" : 1,
                        "TEXCOORD_0" : 2
                    },
                    "indices" : 3,
                    "material" : 0
                }
            ]
        },
        {
            "name" : "Cylinder.004",
            "primitives" : [
                {
                    "attributes" : {
                        "POSITION" : 4,
                        "NORMAL" : 5,
                        "TEXCOORD_0" : 6
                    },
                    "indices" : 3,
                    "material" : 0
                }
            ]
        },
        {
            "name" : "Cylinder.005",
            "primitives" : [
                {
                    "attributes" : {
                        "POSITION" : 7,
                        "NORMAL" : 8,
                        "TEXCOORD_0" : 9
                    },
                    "indices" : 3,
                    "material" : 0
                }
            ]
        },
        {
            "name" : "Cylinder.006",
            "primitives" : [
                {
                    "attributes" : {
                        "POSITION" : 10,
                        "NORMAL" : 11,
                        "TEXCOORD_0" : 12
                    },
                    "indices" : 3,
                    "material" : 0
                }
            ]
        },
        {
            "name" : "Cylinder.007",
            "primitives" : [
                {
                    "attributes" : {
                        "POSITION" : 13,
                        "NORMAL" : 14,
                        "TEXCOORD_0" : 15
                    },
                    "indices" : 3,
                    "material" : 0
                }
            ]
        },
        {
            "name" : "Cylinder.008",
            "primitives" : [
                {
                    "attributes" : {
                        "POSITION" : 16,
                        "NORMAL" : 17,
                        "TEXCOORD_0" : 18
                    },
                    "indices" : 3,
                    "material" : 0
                }
            ]
        }
    ],
    "accessors" : [
        {
            "bufferView" : 0,
            "componentType" : 5126,
            "count" : 82,
            "max" : [
                0.25,
                2,
                0.25
            ],
            "min" : [
                -0.25,
                -2,
                -0.25
            ],
            "type" : "VEC3"
        },
        {
            "bufferView" : 1,
            "componentType" : 5126,
            "count" : 82,
            "type" : "VEC3"
        },
        {
            "bufferView" : 2,
            "componentType" : 5126,
            "count" : 82,
            "type" : "VEC2"
        },
        {
            "bufferView" : 3,
            "componentType" : 5123,
            "count" : 240,
            "type" : "SCALAR"
        },
        {
            "bufferView" : 4,
            "componentType" : 5126,
            "count" : 82,
            "max" : [
                0.25,
                2,
                0.25
            ],
            "min" : [
                -0.25,
                -2,
                -0.25
            ],
            "type" : "VEC3"
        },
        {
            "bufferView" : 5,
            "componentType" : 5126,
            "count" : 82,
            "type" : "VEC3"
        },
        {
            "bufferView" : 6,
            "componentType" : 5126,
            "count" : 82,
            "type" : "VEC2"
        },
        {
            "bufferView" : 7,
            "componentType" : 5126,
            "count" : 82,
            "max" : [
                0.25,
                2,
                0.25
            ],
            "min" : [
                -0.25,
                -2,
                -0.25
            ],
            "type" : "VEC3"
        },
        {
            "bufferView" : 8,
            "componentType" : 5126,
            "count" : 82,
            "type" : "VEC3"
        },
        {
            "bufferView" : 9,
            "componentType" : 5126,
            "count" : 82,
            "type" : "VEC2"
        },
        {
            "bufferView" : 10,
            "componentType" : 5126,
            "count" : 82,
            "max" : [
                0.25,
                2,
                0.25
            ],
            "min" : [
                -0.25,
                -2,
                -0.25
            ],
            "type" : "VEC3"
        },
        {
            "bufferView" : 11,
            "componentType" : 5126,
            "count" : 82,
            "type" : "VEC3"
        },
        {
            "bufferView" : 12,
            "componentType" : 5126,
            "count" : 82,
            "type" : "VEC2"
        },
        {
            "bufferView" : 13,
            "componentType" : 5126,
            "count" : 82,
            "max" : [
                0.25,
                2,
                0.25
            ],
            "min" : [
                -0.25,
                -2,
                -0.25
            ],
            "type" : "VEC3"
        },
        {
            "bufferView" : 14,
            "componentType" : 5126,
            "count" : 82,
            "type" : "VEC3"
        },
        {
            "bufferView" : 15,
            "componentType" : 5126,
            "count" : 82,
            "type" : "VEC2"
        },
        {
            "bufferView" : 16,
            "componentType" : 5126,
            "count" : 82,
            "max" : [
                0.25,
                2,
                0.25
            ],
            "min" : [
                -0.25,
                -2,
                -0.25
            ],
            "type" : "VEC3"
        },
        {
            "bufferView" : 17,
            "componentType" : 5126,
            "count" : 82,
            "type" : "VEC3"
        },
        {
            "bufferView" : 18,
            "componentType" : 5126,
            "count" : 82,
            "type" : "VEC2"
        }
    ],
    "bufferViews" : [
        {
            "buffer" : 0,
            "byteLength" : 984,
            "byteOffset" : 0
        },
        {
            "buffer" : 0,
            "byteLength" : 984,
            "byteOffset" : 984
        },
        {
            "buffer" : 0,
            "byteLength" : 656,
            "byteOffset" : 1968
        },
        {
            "buffer" : 0,
            "byteLength" : 480,
            "byteOffset" : 2624
        },
        {
            "buffer" : 0,
            "byteLength" : 984,
            "byteOffset" : 3104
        },
        {
            "buffer" : 0,
            "byteLength" : 984,
            "byteOffset" : 4088
        },
        {
            "buffer" : 0,
            "byteLength" : 656,
            "byteOffset" : 5072
        },
        {
            "buffer" : 0,
            "byteLength" : 984,
            "byteOffset" : 5728
        },
        {
            "buffer" : 0,
            "byteLength" : 984,
            "byteOffset" : 6712
        },
        {
            "buffer" : 0,
            "byteLength" : 656,
            "byteOffset" : 7696
        },
        {
            "buffer" : 0,
            "byteLength" : 984,
            "byteOffset" : 8352
        },
        {
            "buffer" : 0,
            "byteLength" : 984,
            "byteOffset" : 9336
        },
        {
            "buffer" : 0,
            "byteLength" : 656,
            "byteOffset" : 10320
        },
        {
            "buffer" : 0,
            "byteLength" : 984,
            "byteOffset" : 10976
        },
        {
            "buffer" : 0,
            "byteLength" : 984,
            "byteOffset" : 11960
        },
        {
            "buffer" : 0,
            "byteLength" : 656,
            "byteOffset" : 12944
        },
        {
            "buffer" : 0,
            "byteLength" : 984,
            "byteOffset" : 13600
        },
        {
            "buffer" : 0,
            "byteLength" : 984,
            "byteOffset" : 14584
        },
        {
            "buffer" : 0,
            "byteLength" : 656,
            "byteOffset" : 15568
        }
    ],
    "buffers" : [
        {
            "byteLength" : 16224,
            "uri" : "data:application/octet-stream;base64,"
        }
    ]
}
