{
    "asset" : {
        "generator" : "Khronos glTF Blender I/O v0.9.36",
        "version" : "2.0"
    },
    "scene" : 0,
    "scenes" : [
        {
            "name" : "Scene",
            "nodes" : [
                0,
                1,
                2,
                3,
                4,
                5,
                6,
                7,
                8,
                9,
                10
            ]
        }
    ],
    "nodes" : [
        {
            "name" : "Camera",
            "rotation" : [
                0.483536034822464,
                0.33687159419059753,
                -0.20870360732078552,
                0.7804827094078064
            ],
            "translation" : [
                7.358891487121582,
                4.958309173583984,
                6.925790786743164
            ]
        },
        {
            "mesh" : 0,
            "name" : "Cylinder.001",
            "rotation" : [
                0,
                0,
                -0.7071067690849304,
                0.7071068286895752
            ],
            "translation" : [
                0,
                0.3889898955821991,
                -0.3269217610359192
            ]
        },
        {
            "mesh" : 1,
            "name" : "Cylinder.002",
            "rotation" : [
                0,
                0,
                -0.7071067690849304,
                0.7071068286895752
            ],
            "translation" : [
                0,
                0,
                -0.6548779606819153
            ]
        },
        {
            "mesh" : 2,
            "name" : "Cylinder.003",
            "rotation" : [
                0,
                0,
                -0.7071067690849304,
                0.7071068286895752
            ],
            "translation" : [
                0,
                0.38442689180374146,
                0.27180036902427673
            ]
        },
        {
            "mesh" : 3,
            "name" : "Cylinder.004",
            "rotation" : [
                0,
                0,
                -0.7071067690849304,
                0.7071068286895752
            ],
            "translation" : [
                0,
                0,
                0.5817159414291382
            ]
        },
        {
            "mesh" : 4,
            "name" : "Cylinder",
            "rotation" : [
                0,
                0,
                -0.7071067690849304,
                0.7071068286895752
            ],
            "scale" : [
                0.9880781173706055,
                0.9880781173706055,
                0.9880781173706055
            ],
            "translation" : [
                0,
                0.7789225578308105,
                0
            ]
        },
        {
            "mesh" : 5,
            "name" : "Cylinder.005",
            "rotation" : [
                0,
                0,
                -0.7071067690849304,
                0.7071068286895752
            ]
        },
        {
            "name" : "IrradianceVolume",
            "rotation" : [
                0.006732887122780085,
                0.00031665730057284236,
                -0.01342324074357748,
                0.9998871684074402
            ],
            "scale" : [
                2.9885878562927246,
                2.9885873794555664,
                2.9885876178741455
            ]
        },
        {
            "name" : "Sun.001",
            "rotation" : [
                -0.4433368444442749,
                0,
                -0.021403230726718903,
                0.8960995078086853
            ]
        },
        {
            "name" : "Sun.002"
        },
        {
            "name" : "Area",
            "rotation" : [
                -0.34515970945358276,
                -0.025476718321442604,
                0.030786093324422836,
                0.9376928806304932
            ],
            "translation" : [
                0,
                2.759664297103882,
                0
            ]
        }
    ],
    "materials" : [
        {
            "doubleSided" : true,
            "name" : "realmateria;",
            "pbrMetallicRoughness" : {
                "baseColorFactor" : [
                    0.7824090123176575,
                    0.7824090123176575,
                    0.7824090123176575,
                    1
                ],
                "metallicFactor" : 1,
                "roughnessFactor" : 0.44545456767082214
            }
        }
    ],
    "meshes" : [
        {
            "name" : "Cylinder.003",
            "primitives" : [
                {
                    "attributes" : {
                        "POSITION" : 0,
                        "TEXCOORD_0" : 1
                    },
                    "indices" : 2,
                    "material" : 0
                }
            ]
        },
        {
            "name" : "Cylinder.004",
            "primitives" : [
                {
                    "attributes" : {
                        "POSITION" : 3,
                        "TEXCOORD_0" : 4
                    },
                    "indices" : 2,
                    "material" : 0
                }
            ]
        },
        {
            "name" : "Cylinder.005",
            "primitives" : [
                {
                    "attributes" : {
                        "POSITION" : 5,
                        "TEXCOORD_0" : 6
                    },
                    "indices" : 2,
                    "material" : 0
                }
            ]
        },
        {
            "name" : "Cylinder.006",
            "primitives" : [
                {
                    "attributes" : {
                        "POSITION" : 7,
                        "TEXCOORD_0" : 8
                    },
                    "indices" : 2,
                    "material" : 0
                }
            ]
        },
        {
            "name" : "Cylinder.007",
            "primitives" : [
                {
                    "attributes" : {
                        "POSITION" : 9,
                        "TEXCOORD_0" : 10
                    },
                    "indices" : 2,
                    "material" : 0
                }
            ]
        },
        {
            "name" : "Cylinder.008",
            "primitives" : [
                {
                    "attributes" : {
                        "POSITION" : 11,
                        "TEXCOORD_0" : 12
                    },
                    "indices" : 2,
                    "material" : 0
                }
            ]
        }
    ],
    "accessors" : [
        {
            "bufferView" : 0,
            "componentType" : 5126,
            "count" : 82,
            "max" : [
                0.25,
                2,
                0.25
            ],
            "min" : [
                -0.25,
                -2,
                -0.25
            ],
            "type" : "VEC3"
        },
        {
            "bufferView" : 1,
            "componentType" : 5126,
            "count" : 82,
            "type" : "VEC2"
        },
        {
            "bufferView" : 2,
            "componentType" : 5123,
            "count" : 240,
            "type" : "SCALAR"
        },
        {
            "bufferView" : 3,
            "componentType" : 5126,
            "count" : 82,
            "max" : [
                0.25,
                2,
                0.25
            ],
            "min" : [
                -0.25,
                -2,
                -0.25
            ],
            "type" : "VEC3"
        },
        {
            "bufferView" : 4,
            "componentType" : 5126,
            "count" : 82,
            "type" : "VEC2"
        },
        {
            "bufferView" : 5,
            "componentType" : 5126,
            "count" : 82,
            "max" : [
                0.25,
                2,
                0.25
            ],
            "min" : [
                -0.25,
                -2,
                -0.25
            ],
            "type" : "VEC3"
        },
        {
            "bufferView" : 6,
            "componentType" : 5126,
            "count" : 82,
            "type" : "VEC2"
        },
        {
            "bufferView" : 7,
            "componentType" : 5126,
            "count" : 82,
            "max" : [
                0.25,
                2,
                0.25
            ],
            "min" : [
                -0.25,
                -2,
                -0.25
            ],
            "type" : "VEC3"
        },
        {
            "bufferView" : 8,
            "componentType" : 5126,
            "count" : 82,
            "type" : "VEC2"
        },
        {
            "bufferView" : 9,
            "componentType" : 5126,
            "count" : 82,
            "max" : [
                0.25,
                2,
                0.25
            ],
            "min" : [
                -0.25,
                -2,
                -0.25
            ],
            "type" : "VEC3"
        },
        {
            "bufferView" : 10,
            "componentType" : 5126,
            "count" : 82,
            "type" : "VEC2"
        },
        {
            "bufferView" : 11,
            "componentType" : 5126,
            "count" : 82,
            "max" : [
                0.25,
                2,
                0.25
            ],
            "min" : [
                -0.25,
                -2,
                -0.25
            ],
            "type" : "VEC3"
        },
        {
            "bufferView" : 12,
            "componentType" : 5126,
            "count" : 82,
            "type" : "VEC2"
        }
    ],
    "bufferViews" : [
        {
            "buffer" : 0,
            "byteLength" : 984,
            "byteOffset" : 0
        },
        {
            "buffer" : 0,
            "byteLength" : 656,
            "byteOffset" : 984
        },
        {
            "buffer" : 0,
            "byteLength" : 480,
            "byteOffset" : 1640
        },
        {
            "buffer" : 0,
            "byteLength" : 984,
            "byteOffset" : 2120
        },
        {
            "buffer" : 0,
            "byteLength" : 656,
            "byteOffset" : 3104
        },
        {
            "buffer" : 0,
            "byteLength" : 984,
            "byteOffset" : 3760
        },
        {
            "buffer" : 0,
            "byteLength" : 656,
            "byteOffset" : 4744
        },
        {
            "buffer" : 0,
            "byteLength" : 984,
            "byteOffset" : 5400
        },
        {
            "buffer" : 0,
            "byteLength" : 656,
            "byteOffset" : 6384
        },
        {
            "buffer" : 0,
            "byteLength" : 984,
            "byteOffset" : 7040
        },
        {
            "buffer" : 0,
            "byteLength" : 656,
            "byteOffset" : 8024
        },
        {
            "buffer" : 0,
            "byteLength" : 984,
            "byteOffset" : 8680
        },
        {
            "buffer" : 0,
            "byteLength" : 656,
            "byteOffset" : 9664
        }
    ],
    "buffers" : [
        {
            "byteLength" : 10320,
            "uri" : "data:application/octet-stream;base64,"
        }
    ]
}
