{
    "asset" : {
        "generator" : "Khronos glTF Blender I/O v3.4.50",
        "version" : "2.0"
    },
    "extensionsUsed" : [
        "KHR_materials_specular",
        "KHR_materials_ior",
        "KHR_lights_punctual"
    ],
    "extensionsRequired" : [
        "KHR_lights_punctual"
    ],
    "extensions" : {
        "KHR_lights_punctual" : {
            "lights" : [
                {
                    "color" : [
                        0.8146225810050964,
                        0.6970894932746887,
                        1
                    ],
                    "intensity" : 380.4603061295494,
                    "spot" : {
                        "innerConeAngle" : 0.3337942263919169,
                        "outerConeAngle" : 0.39269909262657166
                    },
                    "type" : "spot",
                    "name" : "Spot"
                },
                {
                    "color" : [
                        1,
                        1,
                        1
                    ],
                    "intensity" : 483.72765922002685,
                    "spot" : {
                        "innerConeAngle" : 0.3337942263919169,
                        "outerConeAngle" : 0.39269909262657166
                    },
                    "type" : "spot",
                    "name" : "Spot.001"
                },
                {
                    "color" : [
                        0.748738169670105,
                        0.6233965158462524,
                        1
                    ],
                    "intensity" : 168.4892975705603,
                    "type" : "point",
                    "name" : "Point"
                }
            ]
        }
    },
    "scene" : 0,
    "scenes" : [
        {
            "name" : "Scene",
            "nodes" : [
                0,
                1,
                2,
                3,
                4
            ]
        }
    ],
    "nodes" : [
        {
            "name" : "Empty",
            "rotation" : [
                0.4445885121822357,
                0.549197793006897,
                -0.4786127209663391,
                0.5212031602859497
            ],
            "translation" : [
                0.29074522852897644,
                0.23417013883590698,
                5.161106109619141
            ]
        },
        {
            "mesh" : 0,
            "name" : "rock.004"
        },
        {
            "extensions" : {
                "KHR_lights_punctual" : {
                    "light" : 0
                }
            },
            "name" : "Spot",
            "rotation" : [
                -0.9082752466201782,
                0,
                0,
                0.41837313771247864
            ],
            "translation" : [
                -0.015340742655098438,
                1.4609323740005493,
                -1.6078327894210815
            ]
        },
        {
            "extensions" : {
                "KHR_lights_punctual" : {
                    "light" : 1
                }
            },
            "name" : "Spot.001",
            "rotation" : [
                -0.4295913875102997,
                0,
                0,
                0.9030234217643738
            ],
            "translation" : [
                -0.38628172874450684,
                1.5180244445800781,
                1.2671992778778076
            ]
        },
        {
            "extensions" : {
                "KHR_lights_punctual" : {
                    "light" : 2
                }
            },
            "name" : "Point",
            "rotation" : [
                -0.7071068286895752,
                0,
                0,
                0.7071068286895752
            ],
            "translation" : [
                0,
                -1.042320966720581,
                0
            ]
        }
    ],
    "materials" : [
        {
            "doubleSided" : true,
            "extensions" : {
                "KHR_materials_specular" : {
                    "specularColorTexture" : {
                        "index" : 0
                    },
                    "specularColorFactor" : [
                        1.054821423503419,
                        1.0599724459790953,
                        1.171440759865887
                    ]
                },
                "KHR_materials_ior" : {
                    "ior" : 1.4500000476837158
                }
            },
            "name" : "Material.001",
            "pbrMetallicRoughness" : {
                "baseColorTexture" : {
                    "index" : 1
                },
                "metallicFactor" : 0.16363635659217834,
                "roughnessFactor" : 0.4954545497894287
            }
        }
    ],
    "meshes" : [
        {
            "name" : "rock.004",
            "primitives" : [
                {
                    "attributes" : {
                        "POSITION" : 0,
                        "TEXCOORD_0" : 1,
                        "NORMAL" : 2
                    },
                    "indices" : 3,
                    "material" : 0
                }
            ]
        }
    ],
    "textures" : [
        {
            "sampler" : 0,
            "source" : 0
        },
        {
            "sampler" : 0,
            "source" : 1
        }
    ],
    "images" : [
        {
            "bufferView" : 4,
            "mimeType" : "image/png",
            "name" : "Image"
        },
        {
            "bufferView" : 5,
            "mimeType" : "image/jpeg",
            "name" : "scratches"
        }
    ],
    "accessors" : [
        {
            "bufferView" : 0,
            "componentType" : 5126,
            "count" : 40389,
            "max" : [
                0.32475745677948,
                0.4836260974407196,
                0.3964705169200897
            ],
            "min" : [
                -0.3087981641292572,
                -0.47948163747787476,
                -0.3654787540435791
            ],
            "type" : "VEC3"
        },
        {
            "bufferView" : 1,
            "componentType" : 5126,
            "count" : 40389,
            "type" : "VEC2"
        },
        {
            "bufferView" : 2,
            "componentType" : 5126,
            "count" : 40389,
            "type" : "VEC3"
        },
        {
            "bufferView" : 3,
            "componentType" : 5123,
            "count" : 221184,
            "type" : "SCALAR"
        }
    ],
    "bufferViews" : [
        {
            "buffer" : 0,
            "byteLength" : 484668,
            "byteOffset" : 0,
            "target" : 34962
        },
        {
            "buffer" : 0,
            "byteLength" : 323112,
            "byteOffset" : 484668,
            "target" : 34962
        },
        {
            "buffer" : 0,
            "byteLength" : 484668,
            "byteOffset" : 807780,
            "target" : 34962
        },
        {
            "buffer" : 0,
            "byteLength" : 442368,
            "byteOffset" : 1292448,
            "target" : 34963
        },
        {
            "buffer" : 0,
            "byteLength" : 990490,
            "byteOffset" : 1734816
        },
        {
            "buffer" : 0,
            "byteLength" : 248385,
            "byteOffset" : 2725308
        }
    ],
    "samplers" : [
        {
            "magFilter" : 9729,
            "minFilter" : 9987
        }
    ],
    "buffers" : [
        {
            "byteLength" : 2973696,
            "uri" : "data:application/octet-stream;base64,"
        }
    ]
}
