{
    "asset" : {
        "generator" : "Khronos glTF Blender I/O v3.4.50",
        "version" : "2.0"
    },
    "extensionsUsed" : [
        "KHR_materials_specular",
        "KHR_materials_ior",
        "KHR_lights_punctual"
    ],
    "extensionsRequired" : [
        "KHR_lights_punctual"
    ],
    "extensions" : {
        "KHR_lights_punctual" : {
            "lights" : [
                {
                    "color" : [
                        0.6233965158462524,
                        0.7079201936721802,
                        1
                    ],
                    "intensity" : 1.2811977775920984,
                    "spot" : {
                        "innerConeAngle" : 0.4095437438379754,
                        "outerConeAngle" : 0.4818161725997925
                    },
                    "type" : "spot",
                    "name" : "Spot"
                }
            ]
        }
    },
    "scene" : 0,
    "scenes" : [
        {
            "name" : "Scene",
            "nodes" : [
                0,
                1,
                2
            ]
        }
    ],
    "nodes" : [
        {
            "name" : "Empty",
            "rotation" : [
                0.4445885121822357,
                0.549197793006897,
                -0.4786127209663391,
                0.5212031602859497
            ],
            "translation" : [
                0.29074522852897644,
                0.23417013883590698,
                5.161106109619141
            ]
        },
        {
            "mesh" : 0,
            "name" : "rock.004"
        },
        {
            "extensions" : {
                "KHR_lights_punctual" : {
                    "light" : 0
                }
            },
            "name" : "Spot",
            "rotation" : [
                -0.9482098817825317,
                -0.0761384591460228,
                0.1863694041967392,
                0.24569790065288544
            ],
            "translation" : [
                -1.618838906288147,
                0.8148376941680908,
                -2.0595946311950684
            ]
        }
    ],
    "materials" : [
        {
            "doubleSided" : true,
            "emissiveFactor" : [
                5.041207451483842e-10,
                7.523334177861329e-10,
                1.3680672150684359e-09
            ],
            "extensions" : {
                "KHR_materials_specular" : {
                    "specularColorTexture" : {
                        "index" : 0
                    },
                    "specularColorFactor" : [
                        1.3689200492113145,
                        1.378941025669461,
                        1.5186539374968406
                    ]
                },
                "KHR_materials_ior" : {
                    "ior" : 1.4500000476837158
                }
            },
            "name" : "Material.001",
            "pbrMetallicRoughness" : {
                "baseColorTexture" : {
                    "index" : 1
                },
                "metallicFactor" : 0,
                "roughnessFactor" : 0.4954545497894287
            }
        }
    ],
    "meshes" : [
        {
            "name" : "rock.004",
            "primitives" : [
                {
                    "attributes" : {
                        "POSITION" : 0,
                        "TEXCOORD_0" : 1,
                        "NORMAL" : 2
                    },
                    "indices" : 3,
                    "material" : 0
                }
            ]
        }
    ],
    "textures" : [
        {
            "sampler" : 0,
            "source" : 0
        },
        {
            "sampler" : 0,
            "source" : 1
        }
    ],
    "images" : [
        {
            "bufferView" : 4,
            "mimeType" : "image/png",
            "name" : "Image"
        },
        {
            "bufferView" : 5,
            "mimeType" : "image/jpeg",
            "name" : "scratches"
        }
    ],
    "accessors" : [
        {
            "bufferView" : 0,
            "componentType" : 5126,
            "count" : 40384,
            "max" : [
                0.32475745677948,
                0.4836260974407196,
                0.3964705169200897
            ],
            "min" : [
                -0.3087981641292572,
                -0.47948163747787476,
                -0.3654787540435791
            ],
            "type" : "VEC3"
        },
        {
            "bufferView" : 1,
            "componentType" : 5126,
            "count" : 40384,
            "type" : "VEC2"
        },
        {
            "bufferView" : 2,
            "componentType" : 5126,
            "count" : 40384,
            "type" : "VEC3"
        },
        {
            "bufferView" : 3,
            "componentType" : 5123,
            "count" : 221184,
            "type" : "SCALAR"
        }
    ],
    "bufferViews" : [
        {
            "buffer" : 0,
            "byteLength" : 484608,
            "byteOffset" : 0,
            "target" : 34962
        },
        {
            "buffer" : 0,
            "byteLength" : 323072,
            "byteOffset" : 484608,
            "target" : 34962
        },
        {
            "buffer" : 0,
            "byteLength" : 484608,
            "byteOffset" : 807680,
            "target" : 34962
        },
        {
            "buffer" : 0,
            "byteLength" : 442368,
            "byteOffset" : 1292288,
            "target" : 34963
        },
        {
            "buffer" : 0,
            "byteLength" : 934459,
            "byteOffset" : 1734656
        },
        {
            "buffer" : 0,
            "byteLength" : 225412,
            "byteOffset" : 2669116
        }
    ],
    "samplers" : [
        {
            "magFilter" : 9729,
            "minFilter" : 9987
        }
    ],
    "buffers" : [
        {
            "byteLength" : 2894528,
            "uri" : "data:application/octet-stream;base64,"
        }
    ]
}
