{
    "asset" : {
        "generator" : "Khronos glTF Blender I/O v3.4.50",
        "version" : "2.0"
    },
    "extensionsUsed" : [
        "KHR_materials_specular",
        "KHR_materials_ior",
        "KHR_lights_punctual"
    ],
    "extensionsRequired" : [
        "KHR_lights_punctual"
    ],
    "extensions" : {
        "KHR_lights_punctual" : {
            "lights" : [
                {
                    "color" : [
                        0.4691413640975952,
                        1,
                        0.5223227143287659
                    ],
                    "intensity" : 0.9708452135733542,
                    "spot" : {
                        "innerConeAngle" : 0.32487230520127586,
                        "outerConeAngle" : 0.38220271468162537
                    },
                    "type" : "spot",
                    "name" : "Spot"
                }
            ]
        }
    },
    "scene" : 0,
    "scenes" : [
        {
            "name" : "Scene",
            "nodes" : [
                0,
                1
            ]
        }
    ],
    "nodes" : [
        {
            "mesh" : 0,
            "name" : "Sphere",
            "rotation" : [
                0,
                1,
                0,
                0
            ],
            "scale" : [
                -1,
                -0.24942755699157715,
                -1
            ],
            "translation" : [
                0.140823632478714,
                0.013907631859183311,
                0.14233213663101196
            ]
        },
        {
            "extensions" : {
                "KHR_lights_punctual" : {
                    "light" : 0
                }
            },
            "name" : "Spot",
            "rotation" : [
                -0.9377830028533936,
                -0.08269418776035309,
                -0.07232634723186493,
                0.32938364148139954
            ],
            "translation" : [
                0,
                1.6815545558929443,
                -1.7832750082015991
            ]
        }
    ],
    "materials" : [
        {
            "doubleSided" : true,
            "emissiveFactor" : [
                0.0009555891687663826,
                0.002001192226979309,
                0.0007472193074102851
            ],
            "extensions" : {
                "KHR_materials_specular" : {
                    "specularColorFactor" : [
                        1.444372401138215,
                        1.444372401138215,
                        1.444372401138215
                    ]
                },
                "KHR_materials_ior" : {
                    "ior" : 1.4500000476837158
                }
            },
            "name" : "Material.001",
            "pbrMetallicRoughness" : {
                "baseColorTexture" : {
                    "index" : 0
                },
                "metallicFactor" : 0.8772727251052856,
                "roughnessFactor" : 0.4272727370262146
            }
        }
    ],
    "meshes" : [
        {
            "name" : "Sphere",
            "primitives" : [
                {
                    "attributes" : {
                        "POSITION" : 0,
                        "TEXCOORD_0" : 1,
                        "NORMAL" : 2
                    },
                    "indices" : 3,
                    "material" : 0
                }
            ]
        }
    ],
    "textures" : [
        {
            "sampler" : 0,
            "source" : 0
        }
    ],
    "images" : [
        {
            "bufferView" : 4,
            "mimeType" : "image/jpeg",
            "name" : "scratches"
        }
    ],
    "accessors" : [
        {
            "bufferView" : 0,
            "componentType" : 5126,
            "count" : 26512,
            "max" : [
                1.0511990785598755,
                1,
                1.0114840269088745
            ],
            "min" : [
                -1.048230767250061,
                -1.9457753896713257,
                -1.1100507974624634
            ],
            "type" : "VEC3"
        },
        {
            "bufferView" : 1,
            "componentType" : 5126,
            "count" : 26512,
            "type" : "VEC2"
        },
        {
            "bufferView" : 2,
            "componentType" : 5126,
            "count" : 26512,
            "type" : "VEC3"
        },
        {
            "bufferView" : 3,
            "componentType" : 5123,
            "count" : 115812,
            "type" : "SCALAR"
        }
    ],
    "bufferViews" : [
        {
            "buffer" : 0,
            "byteLength" : 318144,
            "byteOffset" : 0,
            "target" : 34962
        },
        {
            "buffer" : 0,
            "byteLength" : 212096,
            "byteOffset" : 318144,
            "target" : 34962
        },
        {
            "buffer" : 0,
            "byteLength" : 318144,
            "byteOffset" : 530240,
            "target" : 34962
        },
        {
            "buffer" : 0,
            "byteLength" : 231624,
            "byteOffset" : 848384,
            "target" : 34963
        },
        {
            "buffer" : 0,
            "byteLength" : 225412,
            "byteOffset" : 1080008
        }
    ],
    "samplers" : [
        {
            "magFilter" : 9729,
            "minFilter" : 9987
        }
    ],
    "buffers" : [
        {
            "byteLength" : 1305420,
            "uri" : "data:application/octet-stream;base64,"
        }
    ]
}
