{
    "asset" : {
        "generator" : "Khronos glTF Blender I/O v0.9.36",
        "version" : "2.0"
    },
    "extensionsUsed" : [
        "KHR_texture_transform"
    ],
    "extensionsRequired" : [
        "KHR_texture_transform"
    ],
    "scene" : 0,
    "scenes" : [
        {
            "name" : "Scene",
            "nodes" : [
                0,
                1,
                2,
                3,
                4,
                5,
                6
            ]
        }
    ],
    "nodes" : [
        {
            "mesh" : 0,
            "name" : "Cube"
        },
        {
            "name" : "Light",
            "rotation" : [
                0.16907575726509094,
                0.7558803558349609,
                -0.27217137813568115,
                0.570947527885437
            ],
            "translation" : [
                -0.016437768936157227,
                3.3014755249023438,
                4.727950572967529
            ]
        },
        {
            "name" : "Camera",
            "rotation" : [
                -2.145438656953047e-06,
                0.6989361047744751,
                -0.7151840925216675,
                -2.4722983198444126e-06
            ],
            "translation" : [
                -1.1805479516624473e-05,
                0.16448618471622467,
                -2.4491050243377686
            ]
        },
        {
            "mesh" : 1,
            "name" : "Cylinder",
            "translation" : [
                0,
                0.625,
                0
            ]
        },
        {
            "mesh" : 2,
            "name" : "Cylinder.001",
            "scale" : [
                0.01600000075995922,
                0.10499999672174454,
                0.01600000075995922
            ],
            "translation" : [
                0,
                0.7450000047683716,
                0
            ]
        },
        {
            "mesh" : 3,
            "name" : "Cylinder.002",
            "scale" : [
                0.013000000268220901,
                0.03799999877810478,
                0.013000000268220901
            ],
            "translation" : [
                0,
                0.8799999952316284,
                0
            ]
        },
        {
            "mesh" : 4,
            "name" : "Cylinder.003",
            "rotation" : [
                0.7071067690849304,
                0,
                0,
                0.7071067690849304
            ],
            "translation" : [
                0,
                0.9356769919395447,
                0
            ]
        }
    ],
    "materials" : [
        {
            "doubleSided" : true,
            "name" : "blade",
            "pbrMetallicRoughness" : {
                "baseColorFactor" : [
                    0.8000000715255737,
                    0.7931356430053711,
                    0.7727494239807129,
                    1
                ],
                "metallicFactor" : 0.7454545497894287,
                "metallicRoughnessTexture" : {
                    "index" : 0,
                    "texCoord" : 0
                }
            }
        },
        {
            "doubleSided" : true,
            "name" : "blade.001",
            "pbrMetallicRoughness" : {
                "baseColorFactor" : [
                    0.8000000715255737,
                    0.7931356430053711,
                    0.7727494239807129,
                    1
                ],
                "metallicFactor" : 0.7454545497894287,
                "metallicRoughnessTexture" : {
                    "index" : 1,
                    "texCoord" : 0
                }
            }
        },
        {
            "doubleSided" : true,
            "name" : "guard",
            "pbrMetallicRoughness" : {
                "baseColorFactor" : [
                    0.25719696283340454,
                    0.18692250549793243,
                    0.12262436747550964,
                    1
                ],
                "metallicFactor" : 0.7454545497894287,
                "metallicRoughnessTexture" : {
                    "extensions" : {
                        "KHR_texture_transform" : {
                            "offset" : [
                                0,
                                0.5
                            ],
                            "scale" : [
                                0.5,
                                0.5
                            ]
                        }
                    },
                    "index" : 2,
                    "texCoord" : 0
                }
            }
        },
        {
            "doubleSided" : true,
            "name" : "handle",
            "pbrMetallicRoughness" : {
                "baseColorFactor" : [
                    0.008966981433331966,
                    0.004670476075261831,
                    0.005903902463614941,
                    1
                ],
                "metallicFactor" : 0,
                "metallicRoughnessTexture" : {
                    "index" : 3,
                    "texCoord" : 0
                }
            }
        },
        {
            "doubleSided" : true,
            "name" : "pommel_glow",
            "pbrMetallicRoughness" : {
                "baseColorFactor" : [
                    0.8000000715255737,
                    0.7931356430053711,
                    0.7727494239807129,
                    1
                ],
                "metallicFactor" : 0.7454545497894287,
                "metallicRoughnessTexture" : {
                    "index" : 4,
                    "texCoord" : 0
                }
            }
        }
    ],
    "meshes" : [
        {
            "name" : "Cube",
            "primitives" : [
                {
                    "attributes" : {
                        "POSITION" : 0,
                        "NORMAL" : 1,
                        "TEXCOORD_0" : 2
                    },
                    "indices" : 3,
                    "material" : 0
                },
                {
                    "attributes" : {
                        "POSITION" : 4,
                        "NORMAL" : 5,
                        "TEXCOORD_0" : 6
                    },
                    "indices" : 7,
                    "material" : 1
                }
            ]
        },
        {
            "name" : "Cylinder",
            "primitives" : [
                {
                    "attributes" : {
                        "POSITION" : 8,
                        "NORMAL" : 9,
                        "TEXCOORD_0" : 10
                    },
                    "indices" : 11,
                    "material" : 2
                }
            ]
        },
        {
            "name" : "Cylinder.001",
            "primitives" : [
                {
                    "attributes" : {
                        "POSITION" : 12,
                        "NORMAL" : 13,
                        "TEXCOORD_0" : 14
                    },
                    "indices" : 15,
                    "material" : 3
                }
            ]
        },
        {
            "name" : "Cylinder.002",
            "primitives" : [
                {
                    "attributes" : {
                        "POSITION" : 16,
                        "NORMAL" : 17,
                        "TEXCOORD_0" : 18
                    },
                    "indices" : 19,
                    "material" : 2
                }
            ]
        },
        {
            "name" : "Cylinder.003",
            "primitives" : [
                {
                    "attributes" : {
                        "POSITION" : 20,
                        "NORMAL" : 21,
                        "TEXCOORD_0" : 22
                    },
                    "indices" : 23,
                    "material" : 2
                },
                {
                    "attributes" : {
                        "POSITION" : 24,
                        "NORMAL" : 25,
                        "TEXCOORD_0" : 26
                    },
                    "indices" : 27,
                    "material" : 4
                }
            ]
        }
    ],
    "textures" : [
        {
            "source" : 0
        },
        {
            "source" : 0
        },
        {
            "source" : 0
        },
        {
            "source" : 1
        },
        {
            "source" : 0
        }
    ],
    "images" : [
        {
            "bufferView" : 4,
            "mimeType" : "image/jpeg",
            "name" : "scratches"
        },
        {
            "bufferView" : 17,
            "mimeType" : "image/png",
            "name" : "LeadPlate"
        }
    ],
    "accessors" : [
        {
            "bufferView" : 0,
            "componentType" : 5126,
            "count" : 124,
            "max" : [
                0.04032576456665993,
                0.6050000190734863,
                0.00540981674566865
            ],
            "min" : [
                -0.04032576456665993,
                -0.6050000190734863,
                -0.00540981674566865
            ],
            "type" : "VEC3"
        },
        {
            "bufferView" : 1,
            "componentType" : 5126,
            "count" : 124,
            "type" : "VEC3"
        },
        {
            "bufferView" : 2,
            "componentType" : 5126,
            "count" : 124,
            "type" : "VEC2"
        },
        {
            "bufferView" : 3,
            "componentType" : 5123,
            "count" : 540,
            "type" : "SCALAR"
        },
        {
            "bufferView" : 5,
            "componentType" : 5126,
            "count" : 12,
            "max" : [
                0.010256764478981495,
                0.56856369972229,
                -0.0009232319425791502
            ],
            "min" : [
                -0.010256764478981495,
                -0.2836476266384125,
                -0.005300103221088648
            ],
            "type" : "VEC3"
        },
        {
            "bufferView" : 6,
            "componentType" : 5126,
            "count" : 12,
            "type" : "VEC3"
        },
        {
            "bufferView" : 7,
            "componentType" : 5126,
            "count" : 12,
            "type" : "VEC2"
        },
        {
            "bufferView" : 8,
            "componentType" : 5123,
            "count" : 36,
            "type" : "SCALAR"
        },
        {
            "bufferView" : 9,
            "componentType" : 5126,
            "count" : 482,
            "max" : [
                0.12188567221164703,
                0.019999999552965164,
                0.02500000037252903
            ],
            "min" : [
                -0.12188567221164703,
                -0.048065781593322754,
                -0.02500000037252903
            ],
            "type" : "VEC3"
        },
        {
            "bufferView" : 10,
            "componentType" : 5126,
            "count" : 482,
            "type" : "VEC3"
        },
        {
            "bufferView" : 11,
            "componentType" : 5126,
            "count" : 482,
            "type" : "VEC2"
        },
        {
            "bufferView" : 12,
            "componentType" : 5123,
            "count" : 1896,
            "type" : "SCALAR"
        },
        {
            "bufferView" : 13,
            "componentType" : 5126,
            "count" : 144,
            "max" : [
                1.4249364137649536,
                1,
                1.0303049087524414
            ],
            "min" : [
                -1.424936056137085,
                -1,
                -1.273526668548584
            ],
            "type" : "VEC3"
        },
        {
            "bufferView" : 14,
            "componentType" : 5126,
            "count" : 144,
            "type" : "VEC3"
        },
        {
            "bufferView" : 15,
            "componentType" : 5126,
            "count" : 144,
            "type" : "VEC2"
        },
        {
            "bufferView" : 16,
            "componentType" : 5123,
            "count" : 690,
            "type" : "SCALAR"
        },
        {
            "bufferView" : 18,
            "componentType" : 5126,
            "count" : 612,
            "max" : [
                1.3532609939575195,
                1.1549592018127441,
                1.3378632068634033
            ],
            "min" : [
                -1.35326087474823,
                -1.134274959564209,
                -1.3378632068634033
            ],
            "type" : "VEC3"
        },
        {
            "bufferView" : 19,
            "componentType" : 5126,
            "count" : 612,
            "type" : "VEC3"
        },
        {
            "bufferView" : 20,
            "componentType" : 5126,
            "count" : 612,
            "type" : "VEC2"
        },
        {
            "bufferView" : 21,
            "componentType" : 5123,
            "count" : 2748,
            "type" : "SCALAR"
        },
        {
            "bufferView" : 22,
            "componentType" : 5126,
            "count" : 1047,
            "max" : [
                0.01631070300936699,
                0.020028211176395416,
                0.015248646959662437
            ],
            "min" : [
                -0.01631070300936699,
                -0.020028211176395416,
                -0.03983042761683464
            ],
            "type" : "VEC3"
        },
        {
            "bufferView" : 23,
            "componentType" : 5126,
            "count" : 1047,
            "type" : "VEC3"
        },
        {
            "bufferView" : 24,
            "componentType" : 5126,
            "count" : 1047,
            "type" : "VEC2"
        },
        {
            "bufferView" : 25,
            "componentType" : 5123,
            "count" : 3732,
            "type" : "SCALAR"
        },
        {
            "bufferView" : 26,
            "componentType" : 5126,
            "count" : 49,
            "max" : [
                0.005916704889386892,
                -0.015116969123482704,
                0.006172965746372938
            ],
            "min" : [
                -0.005916704423725605,
                -0.017639582976698875,
                -0.006221191957592964
            ],
            "type" : "VEC3"
        },
        {
            "bufferView" : 27,
            "componentType" : 5126,
            "count" : 49,
            "type" : "VEC3"
        },
        {
            "bufferView" : 28,
            "componentType" : 5126,
            "count" : 49,
            "type" : "VEC2"
        },
        {
            "bufferView" : 29,
            "componentType" : 5123,
            "count" : 150,
            "type" : "SCALAR"
        }
    ],
    "bufferViews" : [
        {
            "buffer" : 0,
            "byteLength" : 1488,
            "byteOffset" : 0
        },
        {
            "buffer" : 0,
            "byteLength" : 1488,
            "byteOffset" : 1488
        },
        {
            "buffer" : 0,
            "byteLength" : 992,
            "byteOffset" : 2976
        },
        {
            "buffer" : 0,
            "byteLength" : 1080,
            "byteOffset" : 3968
        },
        {
            "buffer" : 0,
            "byteLength" : 999388,
            "byteOffset" : 5048
        },
        {
            "buffer" : 0,
            "byteLength" : 144,
            "byteOffset" : 1004436
        },
        {
            "buffer" : 0,
            "byteLength" : 144,
            "byteOffset" : 1004580
        },
        {
            "buffer" : 0,
            "byteLength" : 96,
            "byteOffset" : 1004724
        },
        {
            "buffer" : 0,
            "byteLength" : 72,
            "byteOffset" : 1004820
        },
        {
            "buffer" : 0,
            "byteLength" : 5784,
            "byteOffset" : 1004892
        },
        {
            "buffer" : 0,
            "byteLength" : 5784,
            "byteOffset" : 1010676
        },
        {
            "buffer" : 0,
            "byteLength" : 3856,
            "byteOffset" : 1016460
        },
        {
            "buffer" : 0,
            "byteLength" : 3792,
            "byteOffset" : 1020316
        },
        {
            "buffer" : 0,
            "byteLength" : 1728,
            "byteOffset" : 1024108
        },
        {
            "buffer" : 0,
            "byteLength" : 1728,
            "byteOffset" : 1025836
        },
        {
            "buffer" : 0,
            "byteLength" : 1152,
            "byteOffset" : 1027564
        },
        {
            "buffer" : 0,
            "byteLength" : 1380,
            "byteOffset" : 1028716
        },
        {
            "buffer" : 0,
            "byteLength" : 1086343,
            "byteOffset" : 1030096
        },
        {
            "buffer" : 0,
            "byteLength" : 7344,
            "byteOffset" : 2116440
        },
        {
            "buffer" : 0,
            "byteLength" : 7344,
            "byteOffset" : 2123784
        },
        {
            "buffer" : 0,
            "byteLength" : 4896,
            "byteOffset" : 2131128
        },
        {
            "buffer" : 0,
            "byteLength" : 5496,
            "byteOffset" : 2136024
        },
        {
            "buffer" : 0,
            "byteLength" : 12564,
            "byteOffset" : 2141520
        },
        {
            "buffer" : 0,
            "byteLength" : 12564,
            "byteOffset" : 2154084
        },
        {
            "buffer" : 0,
            "byteLength" : 8376,
            "byteOffset" : 2166648
        },
        {
            "buffer" : 0,
            "byteLength" : 7464,
            "byteOffset" : 2175024
        },
        {
            "buffer" : 0,
            "byteLength" : 588,
            "byteOffset" : 2182488
        },
        {
            "buffer" : 0,
            "byteLength" : 588,
            "byteOffset" : 2183076
        },
        {
            "buffer" : 0,
            "byteLength" : 392,
            "byteOffset" : 2183664
        },
        {
            "buffer" : 0,
            "byteLength" : 300,
            "byteOffset" : 2184056
        }
    ],
    "buffers" : [
        {
            "byteLength" : 2184356,
            "uri" : "data:application/octet-stream;base64,"
        }
    ]
}
